<svg width="14" height="16" viewBox="0 0 14 16" fill="none" xmlns="http://www.w3.org/2000/svg">
<path fill-rule="evenodd" clip-rule="evenodd" d="M2.99353 1.55556C2.99353 1.36111 5.00435 0 7.001 0C8.99761 0 11.0085 1.36111 11.0085 1.55556C11.0085 2.24889 10.9347 2.65947 10.8721 2.88307C10.831 3.02978 10.6933 3.11111 10.5407 3.11111H3.46134C3.3087 3.11111 3.17098 3.02973 3.12992 2.88302C3.06727 2.65938 2.99353 2.2488 2.99353 1.55556ZM6.33309 1.33333C6.08717 1.33333 5.88782 1.53232 5.88782 1.77778C5.88782 2.02324 6.08717 2.22222 6.33309 2.22222H7.66892C7.9148 2.22222 8.11419 2.02324 8.11419 1.77778C8.11419 1.53232 7.9148 1.33333 7.66892 1.33333H6.33309ZM3.45564 5.87467C1.97274 5.4168 2.34695 4.59947 2.91281 4H11.2133C11.6656 4.57671 11.9084 5.35507 10.5407 5.82102C10.5556 5.9528 10.5632 6.08671 10.5632 6.22222C10.5632 8.18591 8.96832 9.77778 7.001 9.77778C5.03365 9.77778 3.43881 8.18591 3.43881 6.22222C3.43881 6.10507 3.44451 5.98911 3.45564 5.87467ZM6.87962 6.22222C8.05644 6.22222 8.96787 6.16009 9.66726 6.05142C9.67083 6.10787 9.67265 6.1648 9.67265 6.22222C9.67265 7.69498 8.47651 8.88889 7.001 8.88889C5.5255 8.88889 4.32936 7.69498 4.32936 6.22222C4.32936 6.1752 4.33056 6.12849 4.33296 6.08209C4.98413 6.17178 5.8192 6.22222 6.87962 6.22222ZM10.7491 12.7107C9.95705 11.4812 8.57429 10.6667 7.001 10.6667C5.42709 10.6667 4.04389 11.4817 3.25202 12.712C3.10744 12.4904 2.88355 12.3193 2.60753 12.2455L1.7473 12.0154C1.15348 11.8566 0.543065 12.2084 0.383941 12.8011L0.038208 14.089C-0.120915 14.6817 0.231502 15.291 0.82536 15.4498L1.68554 15.6799C1.98975 15.7612 2.29824 15.7086 2.54826 15.5583C2.54973 15.8025 2.7485 16 2.99353 16C3.23942 16 3.43881 15.801 3.43881 15.5556V15.1111C3.43881 14.9418 3.45065 14.7752 3.47359 14.6122L5.79079 15.2319C6.0039 15.6857 6.46565 16 7.001 16C7.53631 16 7.99811 15.6857 8.21122 15.2319L10.5284 14.6122C10.5513 14.7752 10.5632 14.9418 10.5632 15.1111V15.5556C10.5632 15.801 10.7626 16 11.0085 16C11.2529 16 11.4514 15.8033 11.4537 15.5598C11.7034 15.7092 12.0111 15.7614 12.3145 15.6802L13.1746 15.4502C13.7685 15.2913 14.1209 14.6821 13.9618 14.0893L13.616 12.8014C13.4569 12.2087 12.8465 11.8569 12.2527 12.0158L11.3925 12.2458C11.1171 12.3195 10.8937 12.49 10.7491 12.7107ZM3.70731 13.7544C4.18727 12.5948 5.26412 11.7438 6.55573 11.5831V13.4092C6.15302 13.5512 5.83897 13.8806 5.71853 14.2923L3.70731 13.7544ZM10.2947 13.7544C9.81469 12.5948 8.73784 11.7438 7.44628 11.5831V13.4092C7.84894 13.5512 8.16299 13.8806 8.28344 14.2923L10.2947 13.7544ZM7.001 15.1111C7.24688 15.1111 7.44628 14.9121 7.44628 14.6667C7.44628 14.4212 7.24688 14.2222 7.001 14.2222C6.75508 14.2222 6.55573 14.4212 6.55573 14.6667C6.55573 14.9121 6.75508 15.1111 7.001 15.1111Z" fill="black"/>
</svg>
