<svg width="68" height="28" viewBox="0 0 68 28" fill="none" xmlns="http://www.w3.org/2000/svg">
<circle cx="58.7574" cy="18.356" r="9.24271" fill="#40AF92"/>
<path d="M18.4854 18.356C18.4854 23.4606 14.3473 27.5987 9.24271 27.5987C4.1381 27.5987 0 23.4606 0 18.356C0 13.2514 4.1381 9.11328 9.24271 9.11328C14.3473 9.11328 18.4854 13.2514 18.4854 18.356Z" fill="#45ABC2"/>
<path d="M15.8445 18.4848C15.8445 22.1309 12.8887 25.0867 9.24256 25.0867C5.59641 25.0867 2.64062 22.1309 2.64062 18.4848C2.64062 14.8386 5.59641 11.8828 9.24256 11.8828C12.8887 11.8828 15.8445 14.8386 15.8445 18.4848Z" fill="white"/>
<path d="M12.5438 18.4846C12.5438 20.3076 11.0659 21.7855 9.24286 21.7855C7.41979 21.7855 5.94189 20.3076 5.94189 18.4846C5.94189 16.6615 7.41979 15.1836 9.24286 15.1836C11.0659 15.1836 12.5438 16.6615 12.5438 18.4846Z" fill="#45ABC2"/>
<path d="M65.1985 18.4769C65.1985 22.1231 62.2427 25.0789 58.5966 25.0789C54.9504 25.0789 51.9946 22.1231 51.9946 18.4769C51.9946 14.8308 54.9504 11.875 58.5966 11.875C62.2427 11.875 65.1985 14.8308 65.1985 18.4769Z" fill="white"/>
<path d="M3.63086 7.79339C28.1901 -3.29787 44.893 8.23351 50.1745 15.3856L51.1648 13.8641L53.1454 11.5534L57.4367 10.8932V9.11129C34.9901 -6.73337 12.2134 1.63075 3.63086 7.79339Z" fill="#40AF92"/>
<path d="M16.7707 13.0899L15.1202 11.7695L15.4503 18.7016L13.7998 25.5047C19.7415 18.0414 38.2466 20.9433 47.4697 23.9842C38.4022 16.9902 23.3269 13.47 16.7707 13.0899Z" fill="#45ABC2"/>
<path d="M62.058 18.4846C62.058 20.3076 60.5801 21.7855 58.757 21.7855C56.9339 21.7855 55.4561 20.3076 55.4561 18.4846C55.4561 16.6615 56.9339 15.1836 58.757 15.1836C60.5801 15.1836 62.058 16.6615 62.058 18.4846Z" fill="#40AF92"/>
</svg>
