<svg width="22" height="27" viewBox="0 0 22 27" fill="none" xmlns="http://www.w3.org/2000/svg">
<path d="M21.5706 20.4785L19.7001 18.6923V11.7692C19.7001 7.51846 17.3222 3.96 13.1752 3.01846V2.07692C13.1752 0.927692 12.2037 0 11.0002 0C9.79676 0 8.82528 0.927692 8.82528 2.07692V3.01846C4.66383 3.96 2.30036 7.50462 2.30036 11.7692V18.6923L0.429886 20.4785C-0.483602 21.3508 0.15439 22.8462 1.44487 22.8462H20.5411C21.8461 22.8462 22.4841 21.3508 21.5706 20.4785ZM16.8002 20.0769H5.20032V11.7692C5.20032 8.33538 7.3898 5.53846 11.0002 5.53846C14.6107 5.53846 16.8002 8.33538 16.8002 11.7692V20.0769ZM11.0002 27C12.5952 27 13.9002 25.7538 13.9002 24.2308H8.10029C8.10029 24.9652 8.40582 25.6696 8.94967 26.1889C9.49351 26.7082 10.2311 27 11.0002 27Z" fill="#1A1A1B"/>
</svg>
