<svg width="14" height="16" viewBox="0 0 14 16" fill="none" xmlns="http://www.w3.org/2000/svg">
<g clip-path="url(#clip0_1140_3645)">
<path d="M0.488393 9.06882C0.579822 9.09921 0.674125 9.11356 0.766704 9.11356C1.07348 9.11356 1.3631 8.95586 1.48136 8.69826C2.22678 7.07807 3.20998 6.21945 3.98425 5.74679C4.13414 5.65576 4.27636 5.57972 4.40804 5.51583V7.20977L8.79068 3.91406H5.14877C5.11906 3.91406 5.09002 3.91594 5.06117 3.91887C5.03472 3.92058 5.00798 3.92343 4.98134 3.92759C4.8993 3.94047 4.09762 4.07615 3.09296 4.68581C2.0883 5.29351 0.895605 6.38122 0.0526207 8.22454C-0.101294 8.56005 0.0939266 8.9381 0.488393 9.06882ZM4.44714 8.26846C5.18068 8.11778 6.03057 8.0199 7.00006 8.01998C7.98689 8.01982 8.84943 8.12161 9.59207 8.27694V5.51624C9.76659 5.60083 9.95932 5.70653 10.1636 5.83993C10.9117 6.3302 11.8202 7.17913 12.5187 8.69834C12.6368 8.95595 12.9266 9.11355 13.2333 9.11364C13.326 9.11364 13.4201 9.09929 13.5116 9.0689C13.9061 8.9381 14.1012 8.56013 13.9474 8.22462C13.1045 6.3813 11.9117 5.29368 10.907 4.68589C10.5279 4.45584 10.1779 4.29342 9.88447 4.17949L4.44714 8.26846Z" fill="black"/>
<path d="M7.00009 3.66724C8.191 3.66724 9.15643 2.8463 9.15643 1.83362C9.15643 0.820939 8.191 0 7.00009 0C5.80918 0 4.84375 0.820939 4.84375 1.83362C4.84375 2.8463 5.80918 3.66724 7.00009 3.66724Z" fill="black"/>
<path d="M9.83757 3.6704C9.93236 3.76143 10.0642 3.80796 10.1967 3.80796C10.3095 3.80796 10.4228 3.77422 10.5141 3.7056L10.5144 3.70544L12.2914 2.36902C12.4897 2.2198 12.5083 1.96228 12.333 1.79383C12.1577 1.62522 11.8549 1.60941 11.6566 1.75846L9.87926 3.09521C9.87907 3.09529 9.87898 3.09546 9.87888 3.09562C9.68088 3.24492 9.66248 3.50195 9.83757 3.6704ZM9.82167 8.32641L9.63555 8.90697L9.59214 9.0425V9.04233L9.56961 9.11258C8.85783 8.94772 8.00497 8.83452 7.00012 8.83452C5.99508 8.83452 5.14251 8.94772 4.43053 9.11258L4.40811 9.04241L4.36201 8.89849L4.21097 8.42681C4.33077 8.27645 4.32243 8.07141 4.17446 7.9292C3.99898 7.76067 3.69623 7.74478 3.49794 7.894L3.49698 7.89473L1.50683 9.39137C1.09568 9.64792 0.887334 9.84236 0.869125 9.85964L0.8766 9.86534L0.603273 10.0709C0.404889 10.2201 0.386297 10.4775 0.561679 10.6461C0.656366 10.7372 0.788334 10.7836 0.920973 10.7836C1.03377 10.7837 1.14696 10.75 1.2381 10.6814L2.10705 10.0278C2.50459 9.7836 3.1328 9.46692 4.00751 9.22121C3.43038 9.5172 2.9095 10.0177 2.57052 10.6896C2.16504 11.481 1.94883 12.5046 1.94691 13.8977C1.94691 14.2549 1.96177 14.6369 1.99263 15.0459C2.03326 15.5851 2.56046 15.9993 3.18714 15.9993C3.21302 15.9993 3.23889 15.9986 3.26496 15.9972C3.92518 15.9611 4.42603 15.4767 4.38367 14.9153C4.35568 14.5459 4.34265 14.2072 4.34265 13.8978C4.33786 12.2805 4.70808 11.4849 4.97748 11.1848C5.11356 11.0298 5.21448 10.9765 5.30486 10.9394C5.39504 10.9045 5.49059 10.8902 5.59524 10.8899C5.69252 10.8896 5.792 10.9046 5.85563 10.9191C5.88755 10.9262 5.91036 10.9328 5.91936 10.9354C5.91965 10.9355 5.91994 10.9356 5.92023 10.9357C6.24904 11.0528 6.60527 11.0349 6.90409 10.9121C7.20253 11.0348 7.55828 11.0528 7.88671 10.9362L7.88748 10.9361C7.90981 10.9279 8.0642 10.8883 8.21294 10.8899C8.3176 10.8902 8.41315 10.9046 8.50333 10.9395C8.63175 10.9961 8.81557 11.0843 9.04356 11.5085C9.2638 11.9293 9.46716 12.6889 9.46525 13.8979C9.46525 14.2074 9.4525 14.546 9.42461 14.9159C9.38254 15.4773 9.88348 15.9615 10.5437 15.9973C10.5698 15.9988 10.5957 15.9994 10.6215 15.9994C11.2483 15.9994 11.7753 15.5851 11.8158 15.0457C11.8464 14.6368 11.8611 14.255 11.8611 13.8979C11.8563 12.0456 11.4806 10.8281 10.7645 9.9822C10.4323 9.59323 10.0177 9.3054 9.59194 9.12537V9.11829C10.5756 9.34859 11.2894 9.67758 11.7546 9.94561C11.9888 10.0807 12.1599 10.2003 12.2696 10.2837C12.3246 10.3253 12.364 10.3578 12.3887 10.3788C12.4007 10.3892 12.4093 10.3968 12.4141 10.4011C12.4166 10.4032 12.4179 10.4044 12.4184 10.4049L12.5289 10.3185L12.417 10.4036L13.1307 9.8598C13.0891 9.81995 12.0393 8.84039 9.82128 8.32632L9.82147 8.32641H9.82167Z" fill="black"/>
</g>
<defs>
<clipPath id="clip0_1140_3645">
<rect width="14" height="16" fill="white"/>
</clipPath>
</defs>
</svg>
