<svg width="27" height="28" viewBox="0 0 27 28" fill="none" xmlns="http://www.w3.org/2000/svg">
<g clip-path="url(#clip0_1131_3656)">
<path d="M14.625 27.5H12.375C11.4446 27.5 10.6875 26.7429 10.6875 25.8125V23.7178C9.96742 23.5096 9.2729 23.2215 8.61694 22.8588L7.13531 24.341C6.49744 24.9789 5.3865 24.9777 4.74863 24.341L3.15731 22.7502C2.83837 22.4319 2.66288 22.0078 2.66288 21.5572C2.66288 21.1066 2.83837 20.6825 3.15731 20.3641L4.6395 18.8814C4.27679 18.226 3.98903 17.5318 3.78169 16.8119H1.6875C0.757125 16.8119 0 16.0548 0 15.1244V12.8744C0 12.4233 0.1755 11.9998 0.493875 11.6814C0.650308 11.5242 0.836335 11.3996 1.04121 11.3147C1.24608 11.2298 1.46574 11.1864 1.6875 11.1869H3.78225C3.99037 10.4681 4.27725 9.7745 4.64062 9.1175L3.159 7.63531C2.84292 7.31871 2.66539 6.88962 2.66539 6.44225C2.66539 5.99488 2.84292 5.56579 3.159 5.24919L4.74975 3.65787C5.38706 3.02112 6.49856 3.02 7.13644 3.65787L8.61862 5.14006C9.27409 4.77784 9.96803 4.49011 10.6875 4.28225V2.1875C10.6875 1.25712 11.4446 0.5 12.375 0.5H14.625C15.5554 0.5 16.3125 1.25712 16.3125 2.1875V4.28225C17.0325 4.49037 17.7255 4.77781 18.3814 5.14006L19.8636 3.65787C20.5014 3.02112 21.6124 3.02 22.2502 3.65787L23.8416 5.24863C24.1605 5.567 24.336 5.99112 24.336 6.44169C24.336 6.89225 24.1605 7.31638 23.8416 7.63475L22.3599 9.11694C22.7228 9.77257 23.0107 10.4669 23.2183 11.1869H25.3125C26.2429 11.1869 27 11.9441 27 12.8744V15.1244C27 15.5756 26.8245 15.9991 26.5061 16.3175C26.1878 16.6359 25.7636 16.8119 25.3125 16.8119H23.2178C23.0098 17.5318 22.7218 18.2261 22.3594 18.8819L23.841 20.3641C24.1571 20.6807 24.3346 21.1098 24.3346 21.5572C24.3346 22.0046 24.1571 22.4337 23.841 22.7502L22.2502 24.3416C21.6124 24.9789 20.5014 24.9789 19.8636 24.3416L18.3825 22.8594C17.7269 23.2218 17.0327 23.5097 16.3131 23.7178V25.8125C16.3123 26.2599 16.1342 26.6888 15.8178 27.0051C15.5014 27.3214 15.0724 27.4994 14.625 27.5ZM8.52581 21.5926C8.6265 21.5926 8.72831 21.6196 8.81888 21.6748C9.61267 22.1607 10.4775 22.5196 11.3822 22.7384C11.5048 22.7681 11.614 22.8381 11.692 22.9373C11.7701 23.0365 11.8125 23.159 11.8125 23.2852V25.8125C11.8125 26.123 12.0651 26.375 12.375 26.375H14.625C14.9349 26.375 15.1875 26.123 15.1875 25.8125V23.2852C15.1875 23.159 15.2299 23.0365 15.308 22.9373C15.386 22.8381 15.4952 22.7681 15.6178 22.7384C16.5222 22.5197 17.3869 22.161 18.1806 21.6753C18.4033 21.5398 18.6879 21.5741 18.8719 21.7574L20.6595 23.5456C20.8704 23.756 21.2439 23.7571 21.4554 23.5456L23.0462 21.9543C23.1516 21.8488 23.2109 21.7058 23.2109 21.5566C23.2109 21.4075 23.1516 21.2644 23.0462 21.1589L21.258 19.3708C21.1687 19.2815 21.112 19.1647 21.0971 19.0393C21.0822 18.9139 21.11 18.7872 21.1759 18.6794C21.6615 17.8858 22.0201 17.0211 22.2384 16.1167C22.268 15.9939 22.338 15.8847 22.4372 15.8065C22.5363 15.7284 22.6589 15.6858 22.7852 15.6858H25.3125C25.3864 15.6861 25.4595 15.6718 25.5278 15.6437C25.5962 15.6156 25.6582 15.5743 25.7105 15.5221C25.7628 15.4699 25.8042 15.408 25.8325 15.3397C25.8607 15.2715 25.8751 15.1983 25.875 15.1244V12.8744C25.875 12.5639 25.6224 12.3119 25.3125 12.3119H22.7852C22.6589 12.312 22.5363 12.2695 22.4371 12.1914C22.3379 12.1132 22.2679 12.0039 22.2384 11.8811C22.0201 10.9766 21.6616 10.1119 21.1759 9.31831C21.11 9.21059 21.0822 9.08382 21.0971 8.95842C21.112 8.83303 21.1687 8.71629 21.258 8.627L23.0462 6.83881C23.1508 6.73363 23.211 6.58906 23.211 6.44113C23.211 6.29319 23.1508 6.14806 23.0462 6.04344L21.4549 4.45269C21.3475 4.35064 21.205 4.29374 21.0569 4.29374C20.9088 4.29374 20.7663 4.35064 20.6589 4.45269L18.8708 6.24088C18.7817 6.33062 18.6649 6.38759 18.5394 6.4025C18.4139 6.41741 18.287 6.38939 18.1794 6.323C17.3862 5.83748 16.5218 5.47897 15.6178 5.26044C15.4952 5.2311 15.386 5.1613 15.308 5.0623C15.2299 4.96331 15.1875 4.84089 15.1875 4.71481V2.1875C15.1875 1.877 14.9349 1.625 14.625 1.625H12.375C12.0651 1.625 11.8125 1.877 11.8125 2.1875V4.71481C11.8125 4.84101 11.7701 4.96354 11.692 5.0627C11.614 5.16187 11.5048 5.23191 11.3822 5.26156C10.4778 5.48006 9.61311 5.83857 8.81944 6.32413C8.71183 6.39008 8.58514 6.41784 8.45981 6.40294C8.33448 6.38804 8.21783 6.33134 8.12869 6.242L6.3405 4.45381C6.23313 4.35177 6.09066 4.29487 5.94253 4.29487C5.7944 4.29487 5.65193 4.35177 5.54456 4.45381L3.95438 6.04456C3.84892 6.15005 3.78968 6.2931 3.78968 6.44225C3.78968 6.5914 3.84892 6.73445 3.95438 6.83994L5.74256 8.62812C5.83186 8.71741 5.88852 8.83415 5.90342 8.95955C5.91832 9.08495 5.89058 9.21171 5.82469 9.31944C5.33905 10.1129 4.98053 10.9774 4.76212 11.8816C4.73258 12.0044 4.66258 12.1136 4.56341 12.1918C4.46423 12.27 4.34165 12.3125 4.21537 12.3125H1.6875C1.6136 12.3122 1.54036 12.3265 1.47202 12.3547C1.40368 12.3828 1.34157 12.4242 1.28929 12.4764C1.237 12.5286 1.19557 12.5907 1.16737 12.659C1.13918 12.7273 1.12478 12.8005 1.125 12.8744V15.1244C1.125 15.4349 1.37756 15.6869 1.6875 15.6869H4.21481C4.47469 15.6869 4.70081 15.8647 4.76156 16.1178C4.98005 17.022 5.33857 17.8865 5.82413 18.68C5.89002 18.7877 5.91775 18.9145 5.90286 19.0399C5.88796 19.1653 5.8313 19.282 5.742 19.3713L3.95381 21.1601C3.84919 21.2653 3.789 21.4098 3.789 21.5578C3.789 21.7057 3.84919 21.8508 3.95381 21.9554L5.54512 23.5462C5.6525 23.6482 5.79497 23.7051 5.94309 23.7051C6.09122 23.7051 6.23369 23.6482 6.34106 23.5462L8.12869 21.758C8.18061 21.7055 8.24246 21.6638 8.31064 21.6354C8.37881 21.607 8.45196 21.5925 8.52581 21.5926Z" fill="black"/>
<path d="M13.5 19.625C10.3984 19.625 7.875 17.1016 7.875 14C7.875 10.8984 10.3984 8.375 13.5 8.375C16.6016 8.375 19.125 10.8984 19.125 14C19.125 17.1016 16.6022 19.625 13.5 19.625ZM13.5 9.5C11.0188 9.5 9 11.5188 9 14C9 16.4812 11.0188 18.5 13.5 18.5C15.9812 18.5 18 16.4812 18 14C18 11.5188 15.9818 9.5 13.5 9.5Z" fill="black"/>
</g>
<defs>
<clipPath id="clip0_1131_3656">
<rect width="27" height="27" fill="white" transform="translate(0 0.5)"/>
</clipPath>
</defs>
</svg>
